<svg width="28" height="18" viewBox="0 0 28 18" fill="none" xmlns="http://www.w3.org/2000/svg">
<path d="M26.0837 8.44036C26.0837 8.16608 26.306 7.94372 26.5803 7.94372C26.8546 7.94372 27.0769 8.16608 27.0769 8.44036V9.71186C27.0769 9.98615 26.8546 10.2085 26.5803 10.2085C26.306 10.2085 26.0837 9.98615 26.0837 9.71186V8.44036ZM24.1263 10.375C24.1263 10.6492 24.3487 10.8716 24.623 10.8716C24.8973 10.8716 25.1196 10.6492 25.1196 10.375V7.77726C25.1196 7.50297 24.8973 7.28062 24.623 7.28062C24.3487 7.28062 24.1263 7.50297 24.1263 7.77726V10.375ZM22.2019 12.2324C22.2019 12.5067 22.4242 12.729 22.6985 12.729C22.9728 12.729 23.1951 12.5067 23.1951 12.2324V5.91985C23.1951 5.64556 22.9728 5.42321 22.6985 5.42321C22.4242 5.42321 22.2019 5.64556 22.2019 5.91985V12.2324ZM20.3724 14.1598C20.3724 14.1612 20.3735 14.1623 20.3748 14.1623H20.869C21.1433 14.1623 21.3657 13.9399 21.3657 13.6656V4.55344C21.3657 4.27916 21.1433 4.0568 20.869 4.0568C20.5948 4.0568 20.3724 4.27915 20.3724 4.55344V14.1598ZM18.4138 11.1978C18.4138 11.4721 18.6362 11.6944 18.9105 11.6944C19.1847 11.6944 19.4071 11.4721 19.4071 11.1978V6.95442C19.4071 6.68013 19.1847 6.45778 18.9105 6.45778C18.6362 6.45778 18.4138 6.68014 18.4138 6.95442V11.1978ZM16.4242 15.6569C16.9728 15.6569 17.4175 15.2122 17.4175 14.6636V2.76944C17.4175 2.49429 17.1944 2.27123 16.9193 2.27123C16.6441 2.27123 16.4211 2.49429 16.4211 2.76944V15.6538C16.4211 15.6555 16.4225 15.6569 16.4242 15.6569ZM14.4662 17.0795C14.4662 17.3538 14.6886 17.5761 14.9629 17.5761C15.2372 17.5761 15.4595 17.3538 15.4595 17.0795V1.07275C15.4595 0.798464 15.2372 0.576111 14.9629 0.576111C14.6886 0.576111 14.4662 0.798464 14.4662 1.07275V17.0795ZM12.5418 14.9517C12.5418 14.9516 12.5418 14.9516 12.5418 14.9516H13.0384C13.3127 14.9516 13.535 14.7292 13.535 14.455V3.6972C13.535 3.42292 13.3127 3.20056 13.0384 3.20056C12.7641 3.20056 12.5418 3.42292 12.5418 3.6972V14.9517ZM10.5509 11.1179C10.5509 11.3922 10.7732 11.6145 11.0475 11.6145C11.3218 11.6145 11.5442 11.3922 11.5442 11.1179V7.15805C11.5442 6.88376 11.3218 6.66141 11.0475 6.66141C10.7732 6.66141 10.5509 6.88376 10.5509 7.15805V11.1179ZM8.62648 10.4383C8.62648 10.4358 8.62849 10.4338 8.63096 10.4338H9.12312C9.39741 10.4338 9.61976 10.2114 9.61976 9.93715V8.21071C9.61976 7.93642 9.39741 7.71407 9.12312 7.71407C8.84884 7.71407 8.62648 7.93642 8.62648 8.21071V10.4383ZM6.70202 11.8906C6.70202 11.8896 6.70283 11.8888 6.70383 11.8888H7.19865C7.47294 11.8888 7.69529 11.6665 7.69529 11.3922V6.75811C7.69529 6.48382 7.47294 6.26147 7.19865 6.26147C6.92437 6.26147 6.70202 6.48382 6.70202 6.75811V11.8906ZM4.80865 14.6149C4.80862 14.6138 4.80949 14.6129 4.81058 14.6129H5.31234C5.5827 14.6129 5.80187 14.3937 5.80187 14.1234V3.7139C5.80187 3.43963 5.57953 3.21729 5.30526 3.21729C5.03099 3.21729 4.80865 3.43963 4.80865 3.7139V14.6149ZM2.88418 12.8739C2.88418 12.8728 2.88504 12.872 2.88611 12.872H3.38082C3.6551 12.872 3.87746 12.6496 3.87746 12.3753V5.67902C3.87746 5.40474 3.6551 5.18238 3.38082 5.18238C3.10653 5.18238 2.88418 5.40474 2.88418 5.67902V12.8739ZM0.923096 10.375C0.923096 10.6492 1.14545 10.8716 1.41973 10.8716C1.69402 10.8716 1.91637 10.6492 1.91637 10.375V7.77726C1.91637 7.50297 1.69402 7.28062 1.41973 7.28062C1.14545 7.28062 0.923096 7.50297 0.923096 7.77726V10.375Z" fill="white"/>
</svg>
