<svg width="127" height="115" viewBox="0 0 127 115" fill="none" xmlns="http://www.w3.org/2000/svg">
<path d="M66.2681 7.69531C66.2162 7.59154 66.1683 7.49574 66.1164 7.39197C64.9071 4.9333 63.6977 2.47064 62.4803 0C61.1273 2.75003 59.7782 5.48809 58.4291 8.23014C58.3692 8.35387 58.3054 8.48559 58.2415 8.61332C57.6907 9.73488 57.1359 10.8485 56.5891 11.97H68.3755C67.6731 10.5411 66.9706 9.11623 66.2721 7.69132L66.2681 7.69531Z" fill="url(#paint0_linear_111_835)"/>
<path d="M49.3408 11.8463H43.0225V70.7105H49.3408V11.8463Z" fill="url(#paint1_linear_111_835)"/>
<path d="M82.8913 11.8463H76.573V70.7105H82.8913V11.8463Z" fill="url(#paint2_linear_111_835)"/>
<path d="M43.182 94.0558C42.7749 94.0558 42.3638 94.0478 41.9487 94.0358L42.1363 87.7216C50.103 87.9531 53.7152 85.5223 55.7388 83.6703C58.1536 81.4631 59.5346 78.2461 59.5346 74.8415V42.5995H65.8529V74.8415C65.8529 80.0143 63.7215 84.9316 60.0015 88.3323C55.7987 92.1759 50.2866 94.0558 43.182 94.0558Z" fill="url(#paint3_linear_111_835)"/>
<path d="M3.84364 106.86H4.89336V114.037H3.84364V111.813H1.0497V114.037H0V106.86H1.0497V110.887H3.84364V106.86Z" fill="url(#paint4_linear_111_835)"/>
<path d="M12.3803 112.999H15.5773V114.029H11.3425V106.872H15.5095V107.882H12.3843V110.313H15.1982V111.295H12.3843V112.999H12.3803Z" fill="url(#paint5_linear_111_835)"/>
<path d="M23.0182 114.065H22.0283V106.74L26.6742 112.3V106.868H27.6641V114.065H26.7022L23.0182 109.526V114.065Z" fill="url(#paint6_linear_111_835)"/>
<path d="M39.0551 110.117C38.9633 110.412 38.8276 110.676 38.648 110.911C38.4684 111.147 38.2489 111.346 37.9855 111.51C37.9735 111.522 37.9575 111.534 37.9376 111.538C37.9176 111.546 37.9016 111.554 37.8897 111.566L39.1549 114.057H38.0453L36.9357 111.889C36.8559 111.901 36.7801 111.913 36.7002 111.917C36.6204 111.925 36.5366 111.925 36.4448 111.925H35.1596V114.053H34.1099V106.848H36.4448C36.7402 106.848 37.0156 106.884 37.275 106.96C37.5344 107.036 37.7699 107.14 37.9855 107.267C38.5163 107.603 38.8715 108.07 39.0551 108.668C39.0631 108.7 39.0671 108.732 39.0751 108.756C39.0831 108.78 39.0911 108.812 39.103 108.844V108.892C39.115 108.924 39.123 108.96 39.127 108.999C39.127 109.039 39.135 109.079 39.1429 109.115V109.123C39.1509 109.163 39.1509 109.203 39.1509 109.243V109.518C39.1509 109.558 39.1509 109.598 39.1429 109.638V109.658C39.135 109.698 39.131 109.734 39.127 109.77C39.127 109.806 39.115 109.842 39.103 109.882V109.922C39.0751 109.993 39.0591 110.057 39.0551 110.109V110.117ZM36.5765 111.007C36.792 111.007 36.9916 110.963 37.1712 110.871C37.3508 110.78 37.5065 110.66 37.6382 110.508C37.7699 110.357 37.8737 110.185 37.9535 109.993C38.0334 109.802 38.0693 109.598 38.0693 109.391C38.0693 109.183 38.0294 108.988 37.9535 108.792C37.8737 108.596 37.7699 108.425 37.6382 108.277C37.5065 108.129 37.3508 108.01 37.1712 107.918C36.9916 107.826 36.792 107.782 36.5765 107.782H35.1755V111.015H36.5765V111.007Z" fill="url(#paint7_linear_111_835)"/>
<path d="M51.1051 106.852V106.86L48.8779 111.702V114.065H47.8282V111.702L45.6011 106.86H45.613L45.6011 106.852H46.7665L48.3551 110.696L49.9436 106.852H51.1011H51.1051Z" fill="url(#paint8_linear_111_835)"/>
<path d="M64.7313 106.928H65.7611V112.193C65.7611 112.46 65.7092 112.711 65.6094 112.947C65.5096 113.182 65.3699 113.386 65.1983 113.566C65.0267 113.741 64.8231 113.881 64.5916 113.981C64.3601 114.081 64.1087 114.132 63.8413 114.132C63.5459 114.132 63.2745 114.077 63.027 113.965C62.7796 113.853 62.568 113.693 62.3884 113.486L63.1907 112.839C63.2745 112.931 63.3703 112.999 63.4781 113.039C63.5858 113.083 63.7055 113.103 63.8373 113.103C63.961 113.103 64.0768 113.079 64.1845 113.035C64.2923 112.991 64.3881 112.927 64.4679 112.843C64.5477 112.763 64.6116 112.664 64.6595 112.556C64.7034 112.444 64.7273 112.328 64.7273 112.205V106.932L64.7313 106.928Z" fill="url(#paint9_linear_111_835)"/>
<path d="M72.211 114.124L75.1407 106.94L78.0703 114.124H77.0006L76.7851 113.558H73.5002L73.2767 114.124H72.207H72.211ZM73.8595 112.636H76.4259L75.1407 109.343L73.8555 112.636H73.8595Z" fill="url(#paint10_linear_111_835)"/>
<path d="M88.0723 113.143C88.4914 113.143 88.8746 113.043 89.2258 112.843C89.577 112.644 89.8604 112.376 90.0839 112.045L90.9381 112.684C90.6108 113.127 90.1997 113.482 89.7087 113.741C89.2138 114.005 88.671 114.132 88.0763 114.132C87.5854 114.132 87.1263 114.037 86.6953 113.849C86.2642 113.661 85.889 113.402 85.5697 113.079C85.2504 112.755 84.995 112.376 84.8114 111.941C84.6238 111.506 84.532 111.043 84.532 110.544C84.532 110.045 84.6238 109.582 84.8114 109.147C84.999 108.712 85.2504 108.333 85.5697 108.01C85.889 107.686 86.2642 107.431 86.6953 107.239C87.1263 107.048 87.5854 106.956 88.0763 106.956C88.671 106.956 89.2138 107.088 89.7087 107.347C90.2037 107.607 90.6108 107.962 90.9381 108.405L90.0839 109.043C89.8604 108.708 89.577 108.445 89.2258 108.245C88.8746 108.046 88.4914 107.946 88.0723 107.946C87.733 107.946 87.4137 108.014 87.1184 108.153C86.819 108.289 86.5596 108.477 86.34 108.712C86.1165 108.948 85.9409 109.223 85.8092 109.534C85.6775 109.85 85.6136 110.185 85.6136 110.544C85.6136 110.903 85.6775 111.239 85.8092 111.554C85.9409 111.869 86.1165 112.141 86.34 112.376C86.5636 112.612 86.823 112.799 87.1184 112.935C87.4137 113.071 87.733 113.143 88.0723 113.143Z" fill="url(#paint11_linear_111_835)"/>
<path d="M100.965 106.92C101.46 106.92 101.927 107.016 102.366 107.203C102.805 107.395 103.184 107.65 103.507 107.978C103.831 108.305 104.086 108.688 104.274 109.131C104.461 109.574 104.553 110.045 104.553 110.548C104.553 111.051 104.461 111.514 104.274 111.949C104.086 112.388 103.831 112.767 103.507 113.095C103.184 113.422 102.805 113.677 102.366 113.869C101.927 114.061 101.46 114.152 100.965 114.152C100.47 114.152 100.003 114.057 99.568 113.869C99.133 113.677 98.7538 113.422 98.4305 113.095C98.1072 112.767 97.8517 112.384 97.6641 111.949C97.4765 111.51 97.3848 111.043 97.3848 110.548C97.3848 110.053 97.4765 109.574 97.6641 109.131C97.8517 108.692 98.1072 108.305 98.4305 107.978C98.7538 107.65 99.133 107.395 99.568 107.203C100.003 107.012 100.47 106.92 100.965 106.92ZM100.965 113.142C101.304 113.142 101.628 113.075 101.931 112.939C102.234 112.803 102.498 112.616 102.725 112.384C102.953 112.153 103.128 111.873 103.26 111.558C103.392 111.243 103.456 110.903 103.456 110.548C103.456 110.193 103.392 109.85 103.26 109.534C103.128 109.215 102.953 108.936 102.725 108.7C102.498 108.465 102.234 108.277 101.931 108.137C101.628 108.002 101.304 107.934 100.965 107.934C100.626 107.934 100.306 108.002 100.003 108.137C99.7037 108.273 99.4403 108.461 99.2128 108.7C98.9853 108.94 98.8097 109.215 98.678 109.534C98.5462 109.854 98.4824 110.193 98.4824 110.548C98.4824 110.903 98.5462 111.243 98.678 111.558C98.8097 111.873 98.9853 112.149 99.2128 112.384C99.4403 112.62 99.6997 112.803 100.003 112.939C100.302 113.075 100.626 113.142 100.965 113.142Z" fill="url(#paint12_linear_111_835)"/>
<path d="M114.942 110.333C115.23 110.488 115.461 110.716 115.633 111.015C115.805 111.31 115.892 111.65 115.892 112.029C115.892 112.316 115.837 112.588 115.725 112.843C115.613 113.099 115.461 113.322 115.274 113.514C115.082 113.705 114.863 113.857 114.607 113.969C114.352 114.08 114.08 114.136 113.793 114.136H110.999V106.952H113.745C114.005 106.952 114.256 107.004 114.491 107.104C114.727 107.203 114.934 107.343 115.11 107.519C115.286 107.694 115.425 107.902 115.525 108.137C115.625 108.373 115.677 108.624 115.677 108.892C115.677 109.055 115.657 109.207 115.613 109.347C115.569 109.486 115.513 109.618 115.445 109.734C115.378 109.85 115.298 109.961 115.21 110.061C115.122 110.161 115.03 110.253 114.938 110.333H114.942ZM112.049 109.917H113.569C113.713 109.917 113.849 109.89 113.973 109.838C114.096 109.786 114.204 109.714 114.296 109.618C114.388 109.522 114.46 109.415 114.511 109.291C114.563 109.167 114.591 109.035 114.591 108.9C114.591 108.604 114.491 108.361 114.296 108.165C114.1 107.97 113.857 107.87 113.569 107.87H112.049V109.917ZM113.617 113.214C113.781 113.214 113.933 113.182 114.076 113.115C114.22 113.047 114.348 112.963 114.456 112.855C114.563 112.747 114.647 112.62 114.711 112.476C114.775 112.332 114.803 112.181 114.803 112.025C114.803 111.869 114.771 111.71 114.711 111.566C114.647 111.422 114.563 111.295 114.456 111.187C114.348 111.079 114.22 110.995 114.076 110.931C113.933 110.867 113.781 110.84 113.617 110.84H112.049V113.21H113.617V113.214Z" fill="url(#paint13_linear_111_835)"/>
<path d="M126.286 110.556C126.329 110.588 126.373 110.628 126.413 110.668C126.453 110.712 126.489 110.752 126.521 110.792C126.673 110.983 126.788 111.187 126.872 111.414C126.956 111.638 127 111.877 127 112.125C127 112.185 127 112.228 126.992 112.26C126.972 112.628 126.86 112.955 126.661 113.25C126.477 113.526 126.242 113.741 125.954 113.901C125.667 114.06 125.348 114.14 124.992 114.14H124.346C123.995 114.14 123.671 114.06 123.384 113.901C123.096 113.741 122.861 113.522 122.677 113.25C122.626 113.17 122.574 113.079 122.522 112.975L123.432 112.268C123.452 112.392 123.492 112.508 123.556 112.616C123.619 112.723 123.695 112.819 123.787 112.899C123.879 112.983 123.983 113.043 124.102 113.091C124.218 113.134 124.346 113.158 124.474 113.158H124.865C125.132 113.158 125.364 113.071 125.559 112.899C125.755 112.727 125.874 112.512 125.91 112.256C125.91 112.232 125.91 112.205 125.914 112.177C125.914 112.153 125.918 112.125 125.918 112.097C125.918 111.953 125.89 111.817 125.839 111.694C125.787 111.57 125.715 111.458 125.623 111.366C125.531 111.271 125.423 111.195 125.3 111.135C125.176 111.075 125.044 111.043 124.909 111.035H124.31C124.066 111.027 123.843 110.979 123.627 110.891C123.416 110.804 123.224 110.684 123.053 110.532C122.961 110.468 122.881 110.388 122.817 110.297C122.665 110.109 122.55 109.902 122.466 109.674C122.382 109.45 122.338 109.211 122.338 108.964V108.828C122.37 108.457 122.486 108.125 122.681 107.838C122.865 107.563 123.1 107.347 123.388 107.187C123.675 107.028 123.995 106.948 124.35 106.948H124.988C125.34 106.948 125.663 107.028 125.954 107.187C126.246 107.347 126.481 107.567 126.665 107.838C126.685 107.87 126.705 107.906 126.729 107.946C126.753 107.986 126.773 108.022 126.792 108.053L125.902 108.748C125.843 108.512 125.719 108.317 125.531 108.161C125.34 108.006 125.124 107.926 124.873 107.926H124.481C124.35 107.926 124.226 107.95 124.102 107.994C123.983 108.038 123.875 108.101 123.783 108.185C123.691 108.265 123.615 108.365 123.552 108.473C123.488 108.584 123.448 108.7 123.428 108.824C123.42 108.852 123.42 108.876 123.42 108.904V108.984C123.42 109.127 123.448 109.263 123.5 109.387C123.552 109.51 123.623 109.622 123.715 109.714C123.807 109.81 123.915 109.886 124.038 109.945C124.162 110.005 124.294 110.037 124.43 110.045H125.028C125.272 110.053 125.495 110.101 125.711 110.189C125.922 110.277 126.114 110.396 126.286 110.548V110.556Z" fill="url(#paint14_linear_111_835)"/>
<defs>
<linearGradient id="paint0_linear_111_835" x1="59.5895" y1="-4.2481" x2="60.0881" y2="12.7163" gradientUnits="userSpaceOnUse">
<stop offset="0.0530283" stop-color="#004FFF"/>
<stop offset="0.762871" stop-color="#683BCC"/>
</linearGradient>
<linearGradient id="paint1_linear_111_835" x1="44.6309" y1="-9.04439" x2="65.6166" y2="68.7949" gradientUnits="userSpaceOnUse">
<stop offset="0.0530283" stop-color="#004FFF"/>
<stop offset="0.762871" stop-color="#683BCC"/>
</linearGradient>
<linearGradient id="paint2_linear_111_835" x1="78.1814" y1="-9.04439" x2="99.1671" y2="68.7949" gradientUnits="userSpaceOnUse">
<stop offset="0.0530283" stop-color="#004FFF"/>
<stop offset="0.762871" stop-color="#683BCC"/>
</linearGradient>
<linearGradient id="paint3_linear_111_835" x1="48.0339" y1="24.3379" x2="52.563" y2="97.0449" gradientUnits="userSpaceOnUse">
<stop offset="0.0530283" stop-color="#004FFF"/>
<stop offset="0.762871" stop-color="#683BCC"/>
</linearGradient>
<linearGradient id="paint4_linear_111_835" x1="1.24568" y1="104.313" x2="1.67692" y2="114.475" gradientUnits="userSpaceOnUse">
<stop offset="0.0530283" stop-color="#004FFF"/>
<stop offset="0.762871" stop-color="#683BCC"/>
</linearGradient>
<linearGradient id="paint5_linear_111_835" x1="12.4206" y1="104.332" x2="12.9158" y2="114.459" gradientUnits="userSpaceOnUse">
<stop offset="0.0530283" stop-color="#004FFF"/>
<stop offset="0.762871" stop-color="#683BCC"/>
</linearGradient>
<linearGradient id="paint6_linear_111_835" x1="23.463" y1="104.141" x2="23.8531" y2="114.516" gradientUnits="userSpaceOnUse">
<stop offset="0.0530283" stop-color="#004FFF"/>
<stop offset="0.762871" stop-color="#683BCC"/>
</linearGradient>
<linearGradient id="paint7_linear_111_835" x1="35.3942" y1="104.29" x2="35.8162" y2="114.497" gradientUnits="userSpaceOnUse">
<stop offset="0.0530283" stop-color="#004FFF"/>
<stop offset="0.762871" stop-color="#683BCC"/>
</linearGradient>
<linearGradient id="paint8_linear_111_835" x1="47.0022" y1="104.293" x2="47.3896" y2="114.508" gradientUnits="userSpaceOnUse">
<stop offset="0.0530283" stop-color="#004FFF"/>
<stop offset="0.762871" stop-color="#683BCC"/>
</linearGradient>
<linearGradient id="paint9_linear_111_835" x1="63.247" y1="104.371" x2="63.8763" y2="114.552" gradientUnits="userSpaceOnUse">
<stop offset="0.0530283" stop-color="#004FFF"/>
<stop offset="0.762871" stop-color="#683BCC"/>
</linearGradient>
<linearGradient id="paint10_linear_111_835" x1="73.6996" y1="104.39" x2="74.0605" y2="114.568" gradientUnits="userSpaceOnUse">
<stop offset="0.0530283" stop-color="#004FFF"/>
<stop offset="0.762871" stop-color="#683BCC"/>
</linearGradient>
<linearGradient id="paint11_linear_111_835" x1="86.1627" y1="104.409" x2="86.4924" y2="114.578" gradientUnits="userSpaceOnUse">
<stop offset="0.0530283" stop-color="#004FFF"/>
<stop offset="0.762871" stop-color="#683BCC"/>
</linearGradient>
<linearGradient id="paint12_linear_111_835" x1="99.2096" y1="104.353" x2="99.5089" y2="114.603" gradientUnits="userSpaceOnUse">
<stop offset="0.0530283" stop-color="#004FFF"/>
<stop offset="0.762871" stop-color="#683BCC"/>
</linearGradient>
<linearGradient id="paint13_linear_111_835" x1="112.245" y1="104.402" x2="112.677" y2="114.575" gradientUnits="userSpaceOnUse">
<stop offset="0.0530283" stop-color="#004FFF"/>
<stop offset="0.762871" stop-color="#683BCC"/>
</linearGradient>
<linearGradient id="paint14_linear_111_835" x1="123.525" y1="104.395" x2="123.979" y2="114.577" gradientUnits="userSpaceOnUse">
<stop offset="0.0530283" stop-color="#004FFF"/>
<stop offset="0.762871" stop-color="#683BCC"/>
</linearGradient>
</defs>
</svg>
