<svg width="25" height="25" viewBox="0 0 25 25" fill="none" xmlns="http://www.w3.org/2000/svg">
<path d="M7.5 12.0761C7.5 12.6065 7.28929 13.1153 6.91421 13.4903C6.53914 13.8654 6.03043 14.0761 5.5 14.0761C4.96957 14.0761 4.46086 13.8654 4.08579 13.4903C3.71071 13.1153 3.5 12.6065 3.5 12.0761C3.5 11.5457 3.71071 11.037 4.08579 10.6619C4.46086 10.2868 4.96957 10.0761 5.5 10.0761C6.03043 10.0761 6.53914 10.2868 6.91421 10.6619C7.28929 11.037 7.5 11.5457 7.5 12.0761ZM14.5 12.0761C14.5 12.6065 14.2893 13.1153 13.9142 13.4903C13.5391 13.8654 13.0304 14.0761 12.5 14.0761C11.9696 14.0761 11.4609 13.8654 11.0858 13.4903C10.7107 13.1153 10.5 12.6065 10.5 12.0761C10.5 11.5457 10.7107 11.037 11.0858 10.6619C11.4609 10.2868 11.9696 10.0761 12.5 10.0761C13.0304 10.0761 13.5391 10.2868 13.9142 10.6619C14.2893 11.037 14.5 11.5457 14.5 12.0761ZM21.5 12.0761C21.5 12.6065 21.2893 13.1153 20.9142 13.4903C20.5391 13.8654 20.0304 14.0761 19.5 14.0761C18.9696 14.0761 18.4609 13.8654 18.0858 13.4903C17.7107 13.1153 17.5 12.6065 17.5 12.0761C17.5 11.5457 17.7107 11.037 18.0858 10.6619C18.4609 10.2868 18.9696 10.0761 19.5 10.0761C20.0304 10.0761 20.5391 10.2868 20.9142 10.6619C21.2893 11.037 21.5 11.5457 21.5 12.0761Z" fill="white"/>
</svg>
